<svg xmlns="http://www.w3.org/2000/svg" width="1200" height="825" viewBox="0 0 1200 825">
  <defs>
    <linearGradient id="bg" x1="0%" y1="0%" x2="100%" y2="100%">
      <stop offset="0%" stop-color="#0b1020"/>
      <stop offset="100%" stop-color="#151b2e"/>
    </linearGradient>
    <linearGradient id="uni" x1="0%" y1="0%" x2="100%" y2="100%">
      <stop offset="0%" stop-color="#ff007a"/>
      <stop offset="100%" stop-color="#ff4da6"/>
    </linearGradient>
    <linearGradient id="aave" x1="0%" y1="0%" x2="100%" y2="100%">
      <stop offset="0%" stop-color="#b6509e"/>
      <stop offset="100%" stop-color="#6c4fd3"/>
    </linearGradient>
    <linearGradient id="comp" x1="0%" y1="0%" x2="100%" y2="100%">
      <stop offset="0%" stop-color="#00d395"/>
      <stop offset="100%" stop-color="#27ae96"/>
    </linearGradient>
    <filter id="shadow" x="-20%" y="-20%" width="140%" height="140%">
      <feDropShadow dx="0" dy="18" stdDeviation="24" flood-color="#000000" flood-opacity="0.35"/>
    </filter>
  </defs>

  <rect width="1200" height="825" fill="url(#bg)"/>

  <circle cx="180" cy="120" r="220" fill="#ff007a" opacity="0.08"/>
  <circle cx="1020" cy="700" r="260" fill="#00d395" opacity="0.08"/>
  <circle cx="600" cy="420" r="300" fill="#b6509e" opacity="0.07"/>

  <g filter="url(#shadow)">
    <rect x="70" y="120" width="330" height="560" rx="28" fill="#111827" stroke="#2a3145" stroke-width="2"/>
    <rect x="435" y="120" width="330" height="560" rx="28" fill="#111827" stroke="#2a3145" stroke-width="2"/>
    <rect x="800" y="120" width="330" height="560" rx="28" fill="#111827" stroke="#2a3145" stroke-width="2"/>
  </g>

  <text x="235" y="185" fill="#ff4da6" font-family="Arial, Helvetica, sans-serif" font-size="22" font-weight="700">Swap</text>
  <text x="235" y="215" fill="#8b93a7" font-family="Arial, Helvetica, sans-serif" font-size="14">Uniswap-style DEX</text>

  <rect x="110" y="250" width="250" height="88" rx="18" fill="#1a2133"/>
  <circle cx="145" cy="294" r="18" fill="#627eea"/>
  <text x="175" y="288" fill="#ffffff" font-family="Arial, Helvetica, sans-serif" font-size="16" font-weight="600">ETH</text>
  <text x="175" y="312" fill="#8b93a7" font-family="Arial, Helvetica, sans-serif" font-size="13">2.45</text>
  <text x="300" y="300" fill="#ffffff" font-family="Arial, Helvetica, sans-serif" font-size="22" font-weight="700">$6,842</text>

  <circle cx="235" cy="370" r="24" fill="#1f2937" stroke="#374151"/>
  <path d="M225 365 L235 380 L245 365" fill="none" stroke="#ff4da6" stroke-width="3" stroke-linecap="round" stroke-linejoin="round"/>

  <rect x="110" y="410" width="250" height="88" rx="18" fill="#1a2133"/>
  <circle cx="145" cy="454" r="18" fill="#26a17b"/>
  <text x="175" y="448" fill="#ffffff" font-family="Arial, Helvetica, sans-serif" font-size="16" font-weight="600">USDC</text>
  <text x="175" y="472" fill="#8b93a7" font-family="Arial, Helvetica, sans-serif" font-size="13">6,840.12</text>
  <text x="300" y="460" fill="#ffffff" font-family="Arial, Helvetica, sans-serif" font-size="22" font-weight="700">$6,840</text>

  <rect x="110" y="540" width="250" height="54" rx="27" fill="url(#uni)"/>
  <text x="235" y="575" fill="#ffffff" text-anchor="middle" font-family="Arial, Helvetica, sans-serif" font-size="18" font-weight="700">Swap Tokens</text>

  <text x="600" y="185" fill="#c4b5fd" text-anchor="middle" font-family="Arial, Helvetica, sans-serif" font-size="22" font-weight="700">Earn</text>
  <text x="600" y="215" fill="#8b93a7" text-anchor="middle" font-family="Arial, Helvetica, sans-serif" font-size="14">Aave-style yield</text>

  <text x="600" y="310" fill="#ffffff" text-anchor="middle" font-family="Arial, Helvetica, sans-serif" font-size="48" font-weight="700">6.50%</text>
  <text x="600" y="345" fill="#8b93a7" text-anchor="middle" font-family="Arial, Helvetica, sans-serif" font-size="15">APY on USDC</text>

  <rect x="475" y="390" width="250" height="150" rx="18" fill="#1a2133"/>
  <rect x="500" y="470" width="28" height="52" rx="6" fill="#7c6df0" opacity="0.45"/>
  <rect x="538" y="430" width="28" height="92" rx="6" fill="#7c6df0" opacity="0.65"/>
  <rect x="576" y="410" width="28" height="112" rx="6" fill="#7c6df0" opacity="0.85"/>
  <rect x="614" y="450" width="28" height="72" rx="6" fill="#7c6df0" opacity="0.55"/>
  <rect x="652" y="420" width="28" height="102" rx="6" fill="#7c6df0"/>
  <text x="600" y="565" fill="#8b93a7" text-anchor="middle" font-family="Arial, Helvetica, sans-serif" font-size="13">Balance growth</text>

  <rect x="475" y="590" width="250" height="54" rx="27" fill="url(#aave)"/>
  <text x="600" y="625" fill="#ffffff" text-anchor="middle" font-family="Arial, Helvetica, sans-serif" font-size="18" font-weight="700">Supply Assets</text>

  <text x="965" y="185" fill="#00d395" text-anchor="middle" font-family="Arial, Helvetica, sans-serif" font-size="22" font-weight="700">Lend</text>
  <text x="965" y="215" fill="#8b93a7" text-anchor="middle" font-family="Arial, Helvetica, sans-serif" font-size="14">Compound-style markets</text>

  <rect x="840" y="250" width="250" height="72" rx="16" fill="#1a2133"/>
  <text x="865" y="282" fill="#ffffff" font-family="Arial, Helvetica, sans-serif" font-size="15" font-weight="600">USDC Supply</text>
  <text x="865" y="305" fill="#00d395" font-family="Arial, Helvetica, sans-serif" font-size="14">4.82% APY</text>
  <text x="1045" y="295" fill="#ffffff" text-anchor="end" font-family="Arial, Helvetica, sans-serif" font-size="18" font-weight="700">$24.5K</text>

  <rect x="840" y="340" width="250" height="72" rx="16" fill="#1a2133"/>
  <text x="865" y="372" fill="#ffffff" font-family="Arial, Helvetica, sans-serif" font-size="15" font-weight="600">ETH Borrow</text>
  <text x="865" y="395" fill="#f59e0b" font-family="Arial, Helvetica, sans-serif" font-size="14">2.14% APR</text>
  <text x="1045" y="385" fill="#ffffff" text-anchor="end" font-family="Arial, Helvetica, sans-serif" font-size="18" font-weight="700">1.20 ETH</text>

  <rect x="840" y="430" width="250" height="72" rx="16" fill="#1a2133"/>
  <text x="865" y="462" fill="#ffffff" font-family="Arial, Helvetica, sans-serif" font-size="15" font-weight="600">Health Factor</text>
  <text x="865" y="485" fill="#00d395" font-family="Arial, Helvetica, sans-serif" font-size="14">Safe</text>
  <text x="1045" y="475" fill="#ffffff" text-anchor="end" font-family="Arial, Helvetica, sans-serif" font-size="18" font-weight="700">1.84</text>

  <rect x="840" y="540" width="250" height="54" rx="27" fill="url(#comp)"/>
  <text x="965" y="575" fill="#ffffff" text-anchor="middle" font-family="Arial, Helvetica, sans-serif" font-size="18" font-weight="700">Manage Position</text>
</svg>
